<svg width="41" height="43" viewBox="0 0 41 43" fill="none" xmlns="http://www.w3.org/2000/svg">
<path d="M26.9062 21.5C26.9062 23.2819 26.2313 24.9909 25.0299 26.2509C23.8285 27.5109 22.199 28.2187 20.5 28.2187C18.801 28.2187 17.1715 27.5109 15.9701 26.2509C14.7687 24.9909 14.0937 23.2819 14.0937 21.5C14.0937 21.117 14.1322 20.743 14.1984 20.3802H11.9583V29.3318C11.9583 29.9544 12.4388 30.4583 13.0324 30.4583H27.9697C28.2542 30.4577 28.5268 30.3388 28.7278 30.1276C28.9288 29.9164 29.0417 29.6302 29.0417 29.3318V20.3802H26.8016C26.8678 20.743 26.9062 21.117 26.9062 21.5V21.5ZM20.5 25.9792C21.061 25.979 21.6165 25.863 22.1347 25.6377C22.6529 25.4124 23.1238 25.0823 23.5204 24.6661C23.917 24.25 24.2315 23.756 24.4461 23.2124C24.6606 22.6687 24.771 22.0861 24.7708 21.4978C24.7707 20.9094 24.6601 20.3268 24.4452 19.7833C24.2304 19.2398 23.9156 18.746 23.5189 18.33C23.1221 17.9141 22.6511 17.5842 22.1327 17.3592C21.6144 17.1342 21.0589 17.0184 20.4979 17.0186C19.3649 17.0189 18.2784 17.4912 17.4775 18.3316C16.6766 19.1721 16.2267 20.3118 16.227 21.5C16.2273 22.6882 16.6777 23.8277 17.479 24.6677C18.2803 25.5077 19.367 25.9795 20.5 25.9792V25.9792ZM25.625 16.7969H28.1854C28.3555 16.7969 28.5186 16.7262 28.6391 16.6002C28.7596 16.4743 28.8276 16.3034 28.8281 16.125V13.4397C28.8281 13.261 28.7604 13.0895 28.6399 12.9631C28.5193 12.8366 28.3558 12.7656 28.1854 12.7656H25.625C25.4545 12.7656 25.291 12.8366 25.1705 12.9631C25.05 13.0895 24.9822 13.261 24.9822 13.4397V16.125C24.9844 16.4945 25.2727 16.7969 25.625 16.7969V16.7969ZM20.5 0C15.0631 0 9.84881 2.26517 6.00431 6.2972C2.15981 10.3292 0 15.7978 0 21.5C0 27.2022 2.15981 32.6708 6.00431 36.7028C9.84881 40.7348 15.0631 43 20.5 43C23.1921 43 25.8578 42.4439 28.345 41.3634C30.8322 40.2829 33.0921 38.6993 34.9957 36.7028C36.8993 34.7063 38.4093 32.3362 39.4395 29.7277C40.4697 27.1192 41 24.3234 41 21.5C41 18.6766 40.4697 15.8808 39.4395 13.2723C38.4093 10.6638 36.8993 8.29366 34.9957 6.2972C33.0921 4.30074 30.8322 2.71707 28.345 1.63659C25.8578 0.556114 23.1921 0 20.5 0V0ZM31.1771 30.2097C31.1771 31.5781 30.1094 32.6979 28.8046 32.6979H12.1954C10.8906 32.6979 9.82292 31.5781 9.82292 30.2097V12.7903C9.82292 11.4219 10.8906 10.3021 12.1954 10.3021H28.8046C30.1094 10.3021 31.1771 11.4219 31.1771 12.7903V30.2097V30.2097Z" fill="#F7F8FA"/>
</svg>
