<svg width="14" height="14" viewBox="0 0 14 14" fill="none" xmlns="http://www.w3.org/2000/svg">
<path d="M5.66019 7.57177C6.17215 8.08369 6.8665 8.37128 7.5905 8.37128C8.3145 8.37128 9.00884 8.08369 9.52081 7.57177L11.4508 5.64177C11.9547 5.12815 12.2354 4.43638 12.2319 3.71689C12.2285 2.9974 11.9411 2.30836 11.4324 1.7996C10.9236 1.29084 10.2346 1.00349 9.51507 1.00003C8.79558 0.996577 8.10381 1.2773 7.59019 1.78115L6.62519 2.74615M7.59019 5.64177C7.07824 5.13005 6.38403 4.84258 5.66019 4.84258C4.93634 4.84258 4.24213 5.13005 3.73019 5.64177L1.79956 7.57177C1.28761 8.08373 1 8.77808 1 9.50209C1 10.2261 1.28761 10.9204 1.79956 11.4324C2.31151 11.9444 3.00587 12.232 3.72987 12.232C4.45388 12.232 5.14824 11.9444 5.66019 11.4324L6.62519 10.4674L7.59019 5.64177Z" stroke="#121212" stroke-width="2" stroke-linecap="round" stroke-linejoin="round"/>
</svg>
