<?xml version="1.0" encoding="UTF-8"?>
<!DOCTYPE svg PUBLIC "-//W3C//DTD SVG 1.1//EN" "http://www.w3.org/Graphics/SVG/1.1/DTD/svg11.dtd">
<!-- Creator: CorelDRAW 2017 -->
<svg xmlns="http://www.w3.org/2000/svg" xml:space="preserve" width="6.94091in" height="0.81352in" version="1.1" style="shape-rendering:geometricPrecision; text-rendering:geometricPrecision; image-rendering:optimizeQuality; fill-rule:evenodd; clip-rule:evenodd"
viewBox="0 0 7591.62 889.79"
 xmlns:xlink="http://www.w3.org/1999/xlink">
 <defs>
  <style type="text/css">
   <![CDATA[
    .fil1 {fill:white}
    .fil0 {fill:white;fill-rule:nonzero}
   ]]>
  </style>
 </defs>
 <g id="Layer_x0020_1">
  <metadata id="CorelCorpID_0Corel-Layer"/>
  <g id="_2083560852224">
   <g id="_6WT">
    <path class="fil0" d="M1053.08 519.89c0,31.34 15.63,46.97 46.97,46.97l234.81 0 0 70.44 -234.81 0c-93.92,0 -140.89,-39.11 -140.89,-117.4l0 -211.32 93.92 0 0 211.32 0 -0z"/>
    <path id="_1" class="fil0" d="M1487.35 566.86l-35.19 70.44 -105.62 0 140.8 -281.76c15.7,-31.25 39.19,-46.97 70.45,-46.97l23.48 0c31.34,0 54.81,15.7 70.44,46.97l140.89 281.76 -105.62 0 -35.26 -70.44 -164.37 0 0.01 0zm129.18 -70.45l-46.97 -93.92 -46.95 93.92 93.92 0z"/>
    <path id="_2" class="fil0" d="M1804.3 379.02l0 -70.45 281.76 0c93.92,0 140.8,39.19 140.8,117.4l0 117.4c0,62.58 -46.88,93.92 -140.8,93.92l-281.76 0 0 -187.84 93.92 0 0 117.4 187.84 0c31.25,0 46.97,-15.63 46.97,-46.97l0 -93.92c0,-31.25 -15.7,-46.97 -46.97,-46.97l-281.76 0 0 0.02z"/>
    <path id="_3" class="fil0" d="M2250.34 379.02l0 -70.45 281.76 0c93.92,0 140.8,39.19 140.8,117.4l0 117.4c0,62.58 -46.88,93.92 -140.8,93.92l-281.76 0 0 -187.84 93.92 0 0 117.4 187.84 0c31.25,0 46.97,-15.63 46.97,-46.97l0 -93.92c0,-31.25 -15.7,-46.97 -46.97,-46.97l-281.76 0 0 0.02z"/>
    <path id="_4" class="fil0" d="M2696.39 437.75l246.74 0c23.48,0 35.26,-7.85 35.26,-23.48l0 -11.78c0,-15.63 -11.78,-23.48 -35.26,-23.48l-246.74 0 0.24 -70.45 246.5 0c86.07,0 129.11,31.34 129.11,93.92l0 11.78c0,24.2 -6.48,43.83 -19.47,58.65 12.98,14.91 19.47,34.47 19.47,58.74l0 11.7c0,62.58 -43.03,93.92 -129.11,93.92l-246.74 0 0 -199.54 0 0.01zm246.74 70.45l-152.82 0 0 58.66 152.82 0c23.48,0 35.26,-7.85 35.26,-23.48l0 -11.7c0,-15.7 -11.78,-23.48 -35.26,-23.48l0 0.01z"/>
    <path id="_5" class="fil0" d="M3095.48 425.98c0,-78.22 46.96,-117.4 140.88,-117.4l140.89 0c93.92,0 140.8,39.19 140.8,117.4l0 117.4c0,62.58 -46.88,93.92 -140.8,93.92l-140.89 0c-93.92,0 -140.88,-39.11 -140.88,-117.4l0 -93.92zm328.72 0c0,-31.25 -15.7,-46.97 -46.97,-46.97l-140.89 0c-31.34,0 -46.97,15.7 -46.97,46.97l0 93.92c0,31.34 15.63,46.97 46.97,46.97l140.89 0c31.25,0 46.97,-15.63 46.97,-46.97l0 -93.92z"/>
    <polygon id="_6" class="fil0" points="3694.09,472.94 3518.03,308.57 3635.44,308.57 3752.84,418.29 3870.24,308.57 3987.57,308.57 3811.5,472.94 3987.57,637.29 3870.24,637.29 3752.84,527.67 3635.44,637.29 3518.03,637.29 "/>
    <path class="fil1" d="M7527.65 636.32l63.97 0 -143.48 -286.96c-12.32,-24.65 -29.49,-39.82 -58.03,-39.82l-27.02 0c-28.49,0 -45.73,15.2 -58.02,39.82l-143.4 286.96 63.97 0c105.12,-210.51 25.78,-51.55 151.02,-302.01 91.05,182.07 78.94,158.09 151,302.01l0 0zm-2961.53 -326.79l0 326.79 56.59 0 0 -326.79 -56.59 0zm-102.36 0l-76.98 0 -277.34 210.83 0 -210.83 -56.58 0 0 326.79 56.58 0 0 -58.61 153.29 -116.24 154.26 174.85 55.38 0 -169.03 -205.24 160.41 -121.54 0.01 0zm1524.33 326.79l63.96 0 -143.5 -286.96c-12.32,-24.65 -29.48,-39.82 -58.02,-39.82l-27.02 0c-28.48,0 -45.73,15.2 -58.01,39.82l-143.4 286.96 63.96 0c90.92,-182.07 38.41,-76.85 151.01,-302.01 117.88,235.72 54.03,108.37 151.02,302.01zm-771.06 -326.79l-56.59 0 0 203.33c0,87.25 58.83,123.44 136.38,123.44l244.41 0 0 -43.67 -244.41 0c-50.35,0 -79.79,-29.42 -79.79,-79.77l0 -203.33zm-459.23 0l-56.58 0 0 217.43c0,87.24 58.84,109.34 136.38,109.34l244.43 0 0 -44.6 -244.43 0c-50.33,0 -79.8,-29.43 -79.8,-79.77l0 -202.4zm1861.16 326.79l56.59 0 0 -230.88c0,-23.78 16.88,-39.32 40.3,-39.32 17.59,0 32.61,9.09 44.45,21.46l1.61 1.68 136.54 204.75c17.5,26.96 40.28,42.32 73.02,42.32 67.99,0 109.25,-22.9 109.25,-95.8l0 -230.98 -56.49 0 0 230.98c0,23.82 -17.02,39.22 -40.41,39.22 -17.28,0 -32.19,-9.09 -44.06,-20.98l-1.83 -1.8 -136.68 -205.07c-17.52,-26.9 -40.24,-42.35 -72.95,-42.35 -68.03,0 -109.34,22.97 -109.34,95.9l0 230.88 -0.01 0zm-55.3 0c-7.61,-46.71 -22.18,-99.61 -51.85,-135.32l-16.97 -20.42 20.92 -16.33c18.86,-14.7 24.67,-35.71 24.67,-58.81l0 -13.56c0,-71.91 -64.39,-82.34 -122.82,-82.34l-311.95 0 0 29.57 311.95 0c33.73,0 66.33,14.23 66.33,52.76l0 13.56c0,38.54 -32.59,52.76 -66.33,52.76l-311.95 0 0 12.8 0 165.33 56.59 0 0 -148.55 255.36 0c56.38,0 79.31,98.09 89.02,148.55l57.02 0 0 -0.01z"/>
   </g>
   <path id="_6WF" class="fil1" d="M184.89 264.57c0,-9.25 -3.63,-18.05 -10.17,-24.59 -13.56,-13.55 -35.55,-13.62 -49.01,-0.16l-0.93 0.95c-13.56,13.55 -13.56,35.59 0,49.14 13.52,13.52 35.62,13.77 49.1,0.08l0.74 -0.75c6.51,-6.62 10.27,-15.36 10.27,-24.65l0 -0.01zm-149.96 513.75l-0.11 -0.12 0.11 0.12zm690.1 0.27l0.01 -0.18 -0.01 0.18zm-194.98 -628.33c0,-9.3 -3.71,-18.03 -10.23,-24.64l-0.75 -0.77c-13.47,-13.69 -35.61,-13.47 -49.12,0.06 -13.53,13.53 -13.62,35.57 -0.19,49l0.95 0.93c13.59,13.57 35.59,13.56 49.18,-0.01 6.54,-6.53 10.16,-15.33 10.16,-24.57l-0 0zm219.5 391.85c0,-6.58 -2.65,-12.73 -7.34,-17.48l-0.27 -0.28c-9.54,-9.67 -24.93,-9.25 -34.43,0.25 -9.6,9.6 -9.38,25.31 0.18,34.86 9.58,9.58 25.1,9.58 34.68,0.01 4.62,-4.64 7.17,-10.82 7.17,-17.36l0.01 0zm10.23 -162.1c0,-9.22 -3.6,-18 -10.01,-24.41l-0.55 -0.53c-13.59,-13.64 -35.42,-13.33 -48.97,0.22 -13.59,13.59 -13.37,35.75 0.19,49.3 13.59,13.59 35.59,13.59 49.18,0.01 6.54,-6.55 10.16,-15.33 10.16,-24.57l-0.01 -0.01zm-114.66 -114.7c0,-9.25 -3.64,-18.03 -10.17,-24.59l-0.77 -0.77c-13.59,-13.57 -35.6,-13.56 -49.18,0.02 -13.59,13.57 -13.57,35.57 0.01,49.16l0.77 0.75c13.59,13.59 35.59,13.57 49.18,0 6.55,-6.55 10.17,-15.33 10.17,-24.59l-0.01 0zm-230.42 -230.22c0,-9.34 -3.65,-18.23 -10.26,-24.84 -13.55,-13.53 -35.53,-13.67 -48.9,-0.32l-0.65 0.68c-13.59,13.59 -13.37,35.43 0.16,48.98 3.55,3.54 7.83,6.19 12.52,7.98 12.86,4.89 27.3,1.73 37.03,-7.98 6.52,-6.53 10.08,-15.29 10.08,-24.5l0 0zm-114.74 114.4c0,-9.3 -3.69,-18.1 -10.28,-24.63 -13.57,-13.47 -35.57,-13.54 -48.89,-0.16l-1.02 1.07c-13.53,13.61 -13.47,35.61 0.14,49.14 13.64,13.55 35.65,13.47 49.28,-0.26l0.65 -0.63c6.51,-6.56 10.12,-15.28 10.12,-24.53l0 0zm219.85 162.91c0,-6.46 -2.45,-12.7 -7.07,-17.26l-0.81 -0.81c-9.66,-9.5 -25.12,-9.69 -34.75,-0.06 -9.6,9.59 -9.54,25.14 0.16,34.86l0.59 0.61c9.57,9.59 25.11,9.58 34.69,0 4.62,-4.64 7.17,-10.82 7.17,-17.34l0 0zm115.06 115.05c0,-6.58 -2.59,-12.76 -7.23,-17.42l-0.77 -0.77c-9.6,-9.58 -25.17,-9.45 -34.7,0.14 -9.52,9.59 -9.56,25.16 0.09,34.65l0.78 0.77c9.66,9.51 25.14,9.56 34.72,-0.06 4.58,-4.62 7.11,-10.8 7.11,-17.3l0 -0zm-230.42 -230.22c0,-6.61 -2.59,-12.92 -7.26,-17.6 -9.57,-9.55 -25.08,-9.64 -34.55,-0.19l-0.5 0.53c-9.58,9.6 -9.38,24.97 0.16,34.52 2.53,2.51 5.58,4.36 8.91,5.62 9.08,3.46 19.3,1.24 26.17,-5.62 4.62,-4.62 7.1,-10.75 7.1,-17.26l-0.01 0zm-229.82 229.48c0,-6.53 -2.56,-12.72 -7.19,-17.34 -9.52,-9.5 -25.1,-9.74 -34.61,-0.09l-0.75 0.77c-9.52,9.66 -9.74,25.1 -0.1,34.74 9.6,9.6 25.1,9.6 34.7,0.01l0.77 -0.77c4.62,-4.62 7.17,-10.8 7.17,-17.32l0 -0zm115.08 -115.07c0,-6.58 -2.59,-12.8 -7.26,-17.42 -9.55,-9.5 -25.08,-9.54 -34.45,-0.1l-0.99 1.01c-9.55,9.62 -9.49,25.12 0.12,34.67 9.59,9.54 25.09,9.55 34.51,0.09l0.97 -1.01c4.59,-4.59 7.11,-10.76 7.11,-17.24zm-230.17 230.12c0,-6.53 -2.55,-12.71 -7.17,-17.31 -9.64,-9.62 -25.14,-9.56 -35.1,0.38l-0.04 0.02c-9.6,9.62 -9.28,24.91 0.27,34.45 9.6,9.59 25.32,9.37 34.87,-0.19 4.62,-4.64 7.17,-10.82 7.17,-17.36zm679.75 126.23c0,-3.82 -1.46,-7.38 -4.15,-10.08l-0.36 -0.36c-5.61,-5.61 -14.48,-5.4 -20.06,0.16 -5.6,5.59 -5.37,14.83 0.19,20.36 5.59,5.59 14.59,5.59 20.19,0 2.7,-2.7 4.19,-6.26 4.19,-10.08l0 0zm-229.73 -229.75c0,-3.76 -1.41,-7.36 -4.1,-10.01l-0.77 -0.77c-5.62,-5.55 -14.65,-5.73 -20.27,-0.09 -5.57,5.57 -5.61,14.6 -0.16,20.05l0.93 0.91c5.58,5.59 14.6,5.58 20.18,0 2.69,-2.7 4.18,-6.28 4.18,-10.1l0 0zm115.08 115.08c0,-3.81 -1.49,-7.42 -4.2,-10.09l-0.78 -0.77c-5.62,-5.55 -14.66,-5.59 -20.23,0.03 -5.55,5.58 -5.55,14.65 0.06,20.17l0.77 0.75c5.63,5.55 14.65,5.58 20.23,-0.04 2.68,-2.69 4.16,-6.24 4.16,-10.05l-0.01 -0zm-230.43 -230.2c0,-3.93 -1.51,-7.61 -4.29,-10.39 -5.6,-5.59 -14.61,-5.59 -20.08,-0.14l-0.48 0.49c-5.59,5.6 -5.38,14.48 0.18,20.03 1.5,1.5 3.35,2.57 5.31,3.32 5.31,2.05 11.26,0.67 15.28,-3.32 2.67,-2.67 4.09,-6.21 4.09,-9.99l-0.01 0zm-229.83 229.45c0,-3.82 -1.48,-7.39 -4.18,-10.09 -5.65,-5.65 -14.67,-5.45 -20.31,0.1l-0.73 0.71c-5.62,5.53 -5.49,14.61 0.04,20.14 5.6,5.6 14.65,5.57 20.38,-0.18l0.6 -0.58c2.7,-2.7 4.19,-6.28 4.19,-10.11l0.01 0.01zm115.06 -115.08c0,-3.81 -1.49,-7.41 -4.18,-10.09 -5.58,-5.58 -14.62,-5.58 -20.21,-0.01l-0.75 0.77c-5.59,5.59 -5.59,14.62 0,20.21 5.59,5.59 14.62,5.59 20.21,0l0.75 -0.77c2.69,-2.7 4.18,-6.28 4.18,-10.1zm-230.17 230.14c0,-3.81 -1.46,-7.39 -4.16,-10.09 -5.61,-5.6 -14.64,-5.57 -20.54,0.34l-0.1 0.1c-5.6,5.6 -5.31,14.4 0.24,19.95 5.62,5.61 14.83,5.38 20.4,-0.19 2.7,-2.69 4.16,-6.28 4.16,-10.11l0 -0zm20.5 -287.98c0,-9.25 -3.64,-18.03 -10.18,-24.59 -13.55,-13.55 -35.55,-13.61 -49,-0.14l-0.53 0.53c-13.59,13.59 -13.35,35.43 0.19,48.97 13.61,13.61 35.79,13.37 49.35,-0.19 6.55,-6.55 10.18,-15.33 10.18,-24.59l-0.01 0zm662.95 395.86c0.43,1.02 0.65,2.12 0.65,3.22 0,1.12 -0.22,2.19 -0.61,3.17 -0.45,1.03 -1.05,1.92 -1.8,2.7 -1.68,1.68 -3.84,2.49 -5.95,2.49 -2.12,0 -4.28,-0.81 -5.91,-2.45 -1.56,-1.56 -2.46,-3.77 -2.54,-5.9 -0.06,-2.19 0.65,-4.43 2.35,-6.11 1.58,-1.55 3.66,-2.46 5.75,-2.53 2.08,-0.06 4.21,0.65 5.9,2.33l0.36 0.36c0.81,0.84 1.42,1.76 1.82,2.72l-0.01 -0.01zm0 102.71c0.43,1.02 0.65,2.12 0.65,3.22 0,1.12 -0.22,2.19 -0.61,3.17 -0.45,1.03 -1.05,1.92 -1.8,2.7 -1.68,1.68 -3.84,2.49 -5.95,2.49 -2.12,0 -4.28,-0.8 -5.91,-2.45 -1.56,-1.56 -2.46,-3.77 -2.54,-5.9 -0.06,-2.19 0.65,-4.43 2.35,-6.11 1.58,-1.56 3.66,-2.47 5.75,-2.54 2.08,-0.06 4.21,0.65 5.9,2.33l0.36 0.36c0.81,0.84 1.42,1.76 1.82,2.72l-0.01 0zm-346.98 -347.86c1.68,1.68 2.55,3.89 2.55,6.17 0,1.07 -0.21,2.14 -0.61,3.14 -0.4,0.99 -0.99,1.9 -1.78,2.68 -1.09,1.11 -2.55,1.92 -4.07,2.31 -1.58,0.38 -3.24,0.3 -4.81,-0.32 -1.46,-0.49 -2.06,-1.05 -3.29,-1.99 -1.52,-1.56 -2.41,-3.5 -2.54,-5.51 -0.12,-2.2 0.6,-4.39 2.33,-6.1l0.53 -0.53c1.6,-1.62 3.79,-2.39 5.92,-2.34 2.11,0.06 4.25,0.92 5.8,2.48l-0.01 0.01zm-112.88 117.32c0.43,1.02 0.65,2.12 0.65,3.24 0,1.12 -0.23,2.19 -0.61,3.17 -0.45,1.05 -1.05,1.96 -1.83,2.72l-0.81 0.84c-1.65,1.66 -3.81,2.45 -5.93,2.42 -2.11,-0.04 -4.23,-0.87 -5.82,-2.42 -1.66,-1.66 -2.48,-3.82 -2.48,-5.95 0.03,-2.13 0.87,-4.31 2.46,-5.94l0.75 -0.75c1.68,-1.7 3.84,-2.49 5.94,-2.47 2.08,0.02 4.21,0.85 5.81,2.39 0.84,0.83 1.46,1.75 1.87,2.73l-0 0.01zm-115.05 115.11c0.44,1.01 0.63,2.1 0.63,3.2 0,1.16 -0.26,2.3 -0.71,3.32 -0.45,0.99 -1.08,1.89 -1.8,2.63l-0.78 0.79c-1.68,1.7 -3.86,2.47 -5.97,2.42 -2.09,-0.04 -4.18,-0.87 -5.73,-2.41l-0.1 -0.1c-1.54,-1.56 -2.39,-3.69 -2.43,-5.75 -0.04,-2.13 0.74,-4.31 2.39,-5.96l0.8 -0.77c1.6,-1.58 3.77,-2.45 5.89,-2.49 2.17,-0.02 4.34,0.75 6,2.43 0.79,0.79 1.41,1.72 1.82,2.71l-0.01 -0.01zm-115.08 115.08c0.43,1.01 0.63,2.08 0.63,3.18 0,1.09 -0.22,2.15 -0.61,3.15 -0.42,1.03 -1.04,1.97 -1.84,2.76 -1.61,1.58 -3.79,2.47 -5.94,2.55 -2.17,0.06 -4.38,-0.67 -6.06,-2.33 -1.62,-1.62 -2.51,-3.73 -2.55,-5.83 -0.04,-2.07 0.69,-4.17 2.35,-5.85l0.37 -0.38c1.64,-1.6 3.79,-2.43 5.91,-2.41 2.14,-0.01 4.3,0.83 5.91,2.44 0.79,0.79 1.41,1.72 1.82,2.72l0.01 0zm-7.85 3.17l-0.11 -0.12 0.11 0.12zm468.22 -232.35c0.35,0.94 0.55,2.01 0.55,2.98 0,1.12 -0.23,2.17 -0.65,3.2 -0.44,1.03 -1.07,1.95 -1.83,2.71 -1.66,1.63 -3.81,2.45 -5.9,2.45 -2.13,0 -4.27,-0.82 -5.89,-2.43l-0.94 -0.93c-1.66,-1.65 -2.41,-3.83 -2.34,-5.96 0.06,-2.05 0.89,-4.16 2.46,-5.73 1.68,-1.64 3.82,-2.45 5.91,-2.45 2.09,0 4.21,0.81 5.83,2.39l1.03 0.99c0.77,0.73 1.39,1.74 1.76,2.76l0 0zm115.05 115.07c0.34,0.91 0.56,1.96 0.56,2.98 0,1.11 -0.23,2.23 -0.67,3.25 -0.43,0.99 -1.05,1.92 -1.82,2.69 -1.58,1.58 -3.69,2.42 -5.79,2.46 -2.15,0.03 -4.28,-0.75 -5.87,-2.34l-0.85 -0.87c-1.58,-1.62 -2.44,-3.75 -2.47,-5.89 -0.03,-2.17 0.77,-4.33 2.39,-5.97 1.66,-1.64 3.81,-2.48 5.94,-2.47 2.11,-0.01 4.28,0.83 5.9,2.44l1.02 0.99c0.7,0.72 1.3,1.71 1.68,2.71l-0.01 0.01zm106.79 117.61l0.06 -0.22 -0.06 0.22 -0.02 -0.2 -0.11 0.06 0.12 0.12 -0.01 -0.19 0.02 0.2zm0.06 -0.04l0.01 -0.19 -0.01 0.19zm-339.24 -453.67c1.68,1.68 2.55,3.89 2.55,6.17 0,1.07 -0.21,2.14 -0.61,3.14 -0.4,0.99 -0.99,1.9 -1.78,2.68 -1.09,1.11 -2.55,1.92 -4.07,2.31 -1.58,0.38 -3.24,0.3 -4.81,-0.32 -1.46,-0.49 -2.06,-1.05 -3.29,-1.99 -1.52,-1.56 -2.41,-3.5 -2.54,-5.51 -0.12,-2.21 0.6,-4.39 2.33,-6.11l0.53 -0.53c1.6,-1.62 3.79,-2.39 5.92,-2.34 2.11,0.06 4.25,0.92 5.8,2.48l-0.01 0.02zm-112.88 117.31c0.43,1.02 0.65,2.12 0.65,3.24 0,1.12 -0.23,2.19 -0.61,3.16 -0.45,1.05 -1.05,1.95 -1.83,2.72l-0.81 0.84c-1.65,1.66 -3.81,2.45 -5.93,2.42 -2.11,-0.04 -4.23,-0.87 -5.82,-2.42 -1.66,-1.66 -2.48,-3.82 -2.48,-5.95 0.03,-2.14 0.87,-4.31 2.46,-5.93l0.75 -0.77c1.68,-1.7 3.84,-2.49 5.94,-2.47 2.08,0.02 4.21,0.85 5.81,2.39 0.84,0.83 1.46,1.75 1.87,2.73l-0 0.03zm-115.05 115.11c0.44,1.01 0.63,2.1 0.63,3.2 0,1.16 -0.26,2.3 -0.71,3.32 -0.45,0.99 -1.08,1.88 -1.8,2.63l-0.78 0.79c-1.68,1.7 -3.86,2.46 -5.97,2.42 -2.09,-0.04 -4.18,-0.87 -5.73,-2.41l-0.1 -0.1c-1.54,-1.56 -2.39,-3.69 -2.43,-5.75 -0.04,-2.13 0.74,-4.31 2.39,-5.96l0.8 -0.77c1.6,-1.58 3.77,-2.45 5.89,-2.49 2.17,-0.02 4.34,0.77 6,2.43 0.79,0.79 1.41,1.72 1.82,2.72l-0.01 -0.02zm-115.08 115.08c0.43,1.01 0.63,2.08 0.63,3.2 0,1.09 -0.22,2.15 -0.61,3.15 -0.42,1.03 -1.04,1.97 -1.84,2.76 -1.61,1.58 -3.79,2.48 -5.94,2.55 -2.17,0.06 -4.38,-0.67 -6.06,-2.33 -1.62,-1.62 -2.51,-3.73 -2.55,-5.83 -0.04,-2.07 0.69,-4.17 2.35,-5.85l0.37 -0.38c1.64,-1.6 3.79,-2.42 5.91,-2.41 2.14,-0.02 4.3,0.83 5.91,2.44 0.79,0.79 1.41,1.72 1.82,2.71l0.01 0zm-7.85 3.18l-0.11 -0.12 0.11 0.12zm468.22 -232.36c0.35,0.95 0.55,2.01 0.55,2.98 0,1.12 -0.23,2.19 -0.65,3.2 -0.44,1.03 -1.07,1.96 -1.83,2.71 -1.66,1.62 -3.81,2.45 -5.9,2.45 -2.13,0 -4.27,-0.81 -5.89,-2.43l-0.94 -0.93c-1.66,-1.64 -2.41,-3.83 -2.34,-5.96 0.06,-2.05 0.89,-4.16 2.46,-5.72 1.68,-1.65 3.82,-2.46 5.91,-2.46 2.09,0 4.21,0.81 5.83,2.39l1.03 0.99c0.77,0.73 1.39,1.74 1.76,2.76zm115.05 115.07c0.34,0.91 0.56,1.95 0.56,2.98 0,1.11 -0.23,2.23 -0.67,3.26 -0.43,0.99 -1.05,1.92 -1.82,2.69 -1.58,1.58 -3.69,2.42 -5.79,2.45 -2.15,0.03 -4.28,-0.75 -5.87,-2.35l-0.85 -0.85c-1.58,-1.62 -2.44,-3.75 -2.47,-5.89 -0.03,-2.17 0.77,-4.33 2.39,-5.97 1.66,-1.65 3.81,-2.48 5.94,-2.47 2.11,-0.01 4.28,0.83 5.9,2.44l1.02 0.99c0.7,0.71 1.3,1.71 1.68,2.71l-0.01 0zm106.8 117.61l0.06 -0.22 -0.06 0.22 -0.02 -0.2 0.02 0.2zm-0.02 -0.2l-0.11 0.06 0.12 0.12 -0.01 -0.19zm0.07 0.14l0.01 -0.18 -0.01 0.18z"/>
  </g>
 </g>
</svg>