<?xml version="1.0" encoding="UTF-8"?>
<!DOCTYPE svg PUBLIC "-//W3C//DTD SVG 1.1//EN" "http://www.w3.org/Graphics/SVG/1.1/DTD/svg11.dtd">
<!-- Creator: CorelDRAW -->
<svg xmlns="http://www.w3.org/2000/svg" xml:space="preserve" width="6.94093in" height="0.813524in" version="1.1" style="shape-rendering:geometricPrecision; text-rendering:geometricPrecision; image-rendering:optimizeQuality; fill-rule:evenodd; clip-rule:evenodd"
viewBox="0 0 6940.93 813.52"
 xmlns:xlink="http://www.w3.org/1999/xlink">
 <defs>
  <style type="text/css">
   <![CDATA[
    .fil1 {fill:black}
    .fil0 {fill:black;fill-rule:nonzero}
   ]]>
  </style>
 </defs>
 <g id="Layer_x0020_1">
  <metadata id="CorelCorpID_0Corel-Layer"/>
  <g id="_6WT">
   <path class="fil0" d="M962.81 475.33c0,28.65 14.29,42.94 42.94,42.94l214.68 0 0 64.4 -214.68 0c-85.87,0 -128.81,-35.76 -128.81,-107.34l0 -193.21 85.87 0 0 193.21z"/>
   <path id="1" class="fil0" d="M1359.86 518.27l-32.17 64.4 -96.57 0 128.73 -257.61c14.36,-28.57 35.83,-42.94 64.41,-42.94l21.47 0c28.65,0 50.11,14.36 64.4,42.94l128.81 257.61 -96.57 0 -32.24 -64.4 -150.28 0zm118.11 -64.41l-42.94 -85.87 -42.93 85.87 85.87 0z"/>
   <path id="2" class="fil0" d="M1649.64 346.53l0 -64.41 257.61 0c85.87,0 128.73,35.83 128.73,107.34l0 107.34c0,57.22 -42.86,85.87 -128.73,85.87l-257.61 0 0 -171.74 85.87 0 0 107.34 171.74 0c28.57,0 42.94,-14.29 42.94,-42.94l0 -85.87c0,-28.57 -14.36,-42.94 -42.94,-42.94l-257.61 0z"/>
   <path id="3" class="fil0" d="M2057.45 346.53l0 -64.41 257.61 0c85.87,0 128.73,35.83 128.73,107.34l0 107.34c0,57.22 -42.86,85.87 -128.73,85.87l-257.61 0 0 -171.74 85.87 0 0 107.34 171.74 0c28.57,0 42.94,-14.29 42.94,-42.94l0 -85.87c0,-28.57 -14.36,-42.94 -42.94,-42.94l-257.61 0z"/>
   <path id="4" class="fil0" d="M2465.27 400.23l225.59 0c21.47,0 32.24,-7.18 32.24,-21.47l0 -10.77c0,-14.29 -10.77,-21.47 -32.24,-21.47l-225.59 0 0.22 -64.41 225.37 0c78.69,0 118.04,28.65 118.04,85.87l0 10.77c0,22.13 -5.93,40.08 -17.8,53.63 11.87,13.63 17.8,31.51 17.8,53.71l0 10.7c0,57.22 -39.34,85.87 -118.04,85.87l-225.59 0 0 -182.44zm225.59 64.41l-139.72 0 0 53.63 139.72 0c21.47,0 32.24,-7.18 32.24,-21.47l0 -10.7c0,-14.36 -10.77,-21.47 -32.24,-21.47z"/>
   <path id="5" class="fil0" d="M2830.15 389.46c0,-71.51 42.94,-107.34 128.81,-107.34l128.81 0c85.87,0 128.73,35.83 128.73,107.34l0 107.34c0,57.22 -42.86,85.87 -128.73,85.87l-128.81 0c-85.87,0 -128.81,-35.76 -128.81,-107.34l0 -85.87zm300.55 0c0,-28.57 -14.36,-42.94 -42.94,-42.94l-128.81 0c-28.65,0 -42.94,14.36 -42.94,42.94l0 85.87c0,28.65 14.29,42.94 42.94,42.94l128.81 0c28.57,0 42.94,-14.29 42.94,-42.94l0 -85.87z"/>
   <polygon id="6" class="fil0" points="3377.46,432.4 3216.49,282.12 3323.83,282.12 3431.17,382.43 3538.51,282.12 3645.78,282.12 3484.8,432.4 3645.78,582.67 3538.51,582.67 3431.17,482.44 3323.83,582.67 3216.49,582.67 "/>
   <path class="fil1" d="M6882.44 581.78l58.49 0 -131.19 -262.37c-11.26,-22.54 -26.96,-36.41 -53.06,-36.41l-24.7 0c-26.05,0 -41.81,13.9 -53.05,36.41l-131.11 262.37 58.49 0c96.11,-192.47 23.57,-47.13 138.07,-276.13 83.25,166.47 72.17,144.54 138.06,276.13zm-2707.69 -298.78l0 298.78 51.74 0 0 -298.78 -51.74 0zm-93.59 0l-70.38 0 -253.57 192.76 0 -192.76 -51.73 0 0 298.78 51.73 0 0 -53.59 140.15 -106.28 141.04 159.86 50.63 0 -154.54 -187.65 146.66 -111.12zm1393.68 298.78l58.48 0 -131.2 -262.37c-11.26,-22.54 -26.95,-36.41 -53.05,-36.41l-24.7 0c-26.04,0 -41.81,13.9 -53.04,36.41l-131.11 262.37 58.48 0c83.13,-166.46 35.12,-70.26 138.07,-276.13 107.77,215.52 49.4,99.08 138.07,276.13zm-704.97 -298.78l-51.74 0 0 185.91c0,79.77 53.79,112.86 124.69,112.86l223.46 0 0 -39.93 -223.46 0c-46.03,0 -72.95,-26.9 -72.95,-72.93l0 -185.91zm-419.87 0l-51.73 0 0 198.8c0,79.76 53.8,99.97 124.69,99.97l223.48 0 0 -40.78 -223.48 0c-46.02,0 -72.96,-26.91 -72.96,-72.93l0 -185.06zm1701.64 298.78l51.74 0 0 -211.09c0,-21.74 15.44,-35.95 36.85,-35.95 16.08,0 29.81,8.31 40.64,19.62l1.47 1.54 124.84 187.2c16,24.65 36.83,38.69 66.76,38.69 62.16,0 99.89,-20.94 99.89,-87.59l0 -211.19 -51.65 0 0 211.19c0,21.78 -15.56,35.86 -36.95,35.86 -15.8,0 -29.43,-8.31 -40.28,-19.18l-1.67 -1.65 -124.96 -187.5c-16.02,-24.59 -36.79,-38.72 -66.7,-38.72 -62.2,0 -99.97,21 -99.97,87.68l0 211.09zm-50.56 0c-6.96,-42.71 -20.28,-91.07 -47.41,-123.72l-15.51 -18.67 19.13 -14.93c17.24,-13.44 22.56,-32.65 22.56,-53.77l0 -12.4c0,-65.75 -58.87,-75.28 -112.29,-75.28l-285.21 0 0 27.04 285.21 0c30.84,0 60.64,13.01 60.64,48.24l0 12.4c0,35.24 -29.8,48.24 -60.64,48.24l-285.21 0 0 11.7 0 151.16 51.74 0 0 -135.82 233.47 0c51.55,0 72.51,89.68 81.39,135.82l52.13 0z"/>
  </g>
  <path id="_6WF" class="fil1" d="M169.03 241.89c0,-8.46 -3.32,-16.5 -9.3,-22.48 -12.4,-12.39 -32.5,-12.45 -44.81,-0.15l-0.85 0.87c-12.4,12.39 -12.4,32.54 0,44.93 12.36,12.36 32.57,12.59 44.89,0.07l0.68 -0.69c5.95,-6.05 9.39,-14.04 9.39,-22.54zm-137.11 469.72l-0.1 -0.11 0.1 0.11zm630.96 0.25l0.01 -0.16 -0.01 0.16zm-178.27 -574.48c0,-8.5 -3.39,-16.49 -9.35,-22.53l-0.69 -0.7c-12.32,-12.52 -32.56,-12.31 -44.91,0.05 -12.37,12.37 -12.45,32.52 -0.17,44.8l0.87 0.85c12.42,12.41 32.54,12.4 44.96,-0.01 5.98,-5.97 9.29,-14.01 9.29,-22.46zm200.69 358.26c0,-6.01 -2.42,-11.64 -6.71,-15.98l-0.25 -0.26c-8.72,-8.84 -22.79,-8.46 -31.48,0.23 -8.78,8.78 -8.58,23.14 0.16,31.87 8.76,8.76 22.95,8.76 31.71,0.01 4.23,-4.24 6.56,-9.89 6.56,-15.87zm9.35 -148.21c0,-8.43 -3.29,-16.46 -9.15,-22.32l-0.5 -0.49c-12.43,-12.47 -32.38,-12.19 -44.77,0.2 -12.43,12.43 -12.22,32.69 0.17,45.07 12.43,12.42 32.54,12.43 44.97,0.01 5.98,-5.99 9.29,-14.01 9.29,-22.47zm-104.83 -104.87c0,-8.46 -3.33,-16.49 -9.3,-22.48l-0.7 -0.7c-12.42,-12.41 -32.55,-12.4 -44.96,0.02 -12.43,12.41 -12.41,32.52 0.01,44.95l0.7 0.69c12.42,12.42 32.54,12.41 44.96,0 5.99,-5.99 9.3,-14.01 9.3,-22.48zm-210.67 -210.49c0,-8.54 -3.34,-16.67 -9.38,-22.71 -12.39,-12.37 -32.48,-12.5 -44.71,-0.29l-0.59 0.62c-12.43,12.43 -12.22,32.39 0.15,44.78 3.25,3.24 7.16,5.66 11.45,7.3 11.76,4.47 24.96,1.58 33.86,-7.3 5.96,-5.97 9.22,-13.98 9.22,-22.4zm-104.91 104.59c0,-8.5 -3.37,-16.55 -9.4,-22.52 -12.41,-12.32 -32.52,-12.38 -44.7,-0.14l-0.93 0.98c-12.37,12.44 -12.32,32.56 0.13,44.93 12.47,12.39 32.59,12.31 45.06,-0.24l0.59 -0.58c5.95,-6 9.25,-13.97 9.25,-22.43zm201.01 148.95c0,-5.91 -2.24,-11.61 -6.46,-15.78l-0.74 -0.74c-8.83,-8.69 -22.97,-8.86 -31.77,-0.05 -8.78,8.77 -8.72,22.99 0.15,31.87l0.54 0.56c8.75,8.77 22.96,8.76 31.72,0 4.23,-4.24 6.56,-9.89 6.56,-15.86zm105.2 105.19c0,-6.02 -2.37,-11.67 -6.61,-15.93l-0.7 -0.7c-8.78,-8.76 -23.01,-8.64 -31.73,0.13 -8.7,8.77 -8.74,23 0.08,31.68l0.71 0.7c8.83,8.7 22.99,8.75 31.75,-0.06 4.19,-4.23 6.5,-9.87 6.5,-15.82zm-210.67 -210.49c0,-6.04 -2.37,-11.81 -6.64,-16.09 -8.75,-8.73 -22.93,-8.81 -31.59,-0.17l-0.46 0.48c-8.76,8.78 -8.58,22.83 0.14,31.56 2.31,2.3 5.1,3.99 8.14,5.14 8.3,3.16 17.65,1.13 23.93,-5.14 4.22,-4.22 6.49,-9.83 6.49,-15.78zm-210.12 209.81c0,-5.97 -2.34,-11.63 -6.57,-15.85 -8.7,-8.69 -22.95,-8.9 -31.64,-0.08l-0.69 0.7c-8.7,8.83 -8.9,22.95 -0.09,31.76 8.78,8.78 22.95,8.78 31.73,0.01l0.7 -0.7c4.22,-4.23 6.56,-9.87 6.56,-15.84zm105.22 -105.21c0,-6.01 -2.37,-11.7 -6.64,-15.93 -8.73,-8.69 -22.93,-8.72 -31.5,-0.09l-0.91 0.92c-8.73,8.8 -8.68,22.97 0.11,31.7 8.77,8.72 22.94,8.73 31.55,0.08l0.89 -0.92c4.2,-4.2 6.5,-9.84 6.5,-15.76zm-210.44 210.4c0,-5.97 -2.33,-11.62 -6.56,-15.83 -8.81,-8.8 -22.99,-8.74 -32.09,0.35l-0.04 0.02c-8.78,8.79 -8.48,22.77 0.25,31.5 8.78,8.77 23.15,8.57 31.88,-0.17 4.23,-4.24 6.56,-9.89 6.56,-15.87zm621.49 115.41c0,-3.49 -1.33,-6.75 -3.79,-9.22l-0.33 -0.33c-5.13,-5.13 -13.24,-4.94 -18.34,0.15 -5.12,5.11 -4.91,13.56 0.17,18.62 5.11,5.11 13.34,5.11 18.46,0 2.47,-2.47 3.83,-5.72 3.83,-9.22zm-210.04 -210.06c0,-3.44 -1.29,-6.73 -3.75,-9.15l-0.7 -0.7c-5.14,-5.07 -13.39,-5.24 -18.53,-0.08 -5.09,5.09 -5.13,13.35 -0.14,18.34l0.85 0.83c5.1,5.11 13.35,5.1 18.45,0 2.46,-2.47 3.82,-5.75 3.82,-9.24zm105.22 105.22c0,-3.48 -1.36,-6.78 -3.84,-9.23l-0.71 -0.7c-5.14,-5.07 -13.4,-5.11 -18.5,0.03 -5.07,5.1 -5.07,13.39 0.06,18.44l0.7 0.69c5.15,5.07 13.39,5.1 18.5,-0.04 2.45,-2.46 3.8,-5.71 3.8,-9.19zm-210.68 -210.48c0,-3.59 -1.38,-6.96 -3.92,-9.5 -5.12,-5.11 -13.36,-5.11 -18.36,-0.13l-0.44 0.45c-5.11,5.12 -4.92,13.24 0.16,18.31 1.37,1.37 3.06,2.35 4.86,3.04 4.86,1.87 10.29,0.61 13.97,-3.04 2.44,-2.44 3.74,-5.68 3.74,-9.13zm-210.13 209.79c0,-3.49 -1.35,-6.76 -3.82,-9.23 -5.17,-5.16 -13.41,-4.98 -18.57,0.09l-0.67 0.65c-5.14,5.06 -5.02,13.36 0.04,18.41 5.12,5.12 13.39,5.09 18.63,-0.16l0.55 -0.53c2.47,-2.47 3.83,-5.74 3.83,-9.24zm105.2 -105.22c0,-3.48 -1.36,-6.77 -3.82,-9.23 -5.1,-5.1 -13.37,-5.1 -18.48,-0.01l-0.69 0.7c-5.11,5.11 -5.11,13.37 0,18.48 5.11,5.11 13.37,5.11 18.48,0l0.69 -0.7c2.46,-2.47 3.82,-5.75 3.82,-9.24zm-210.44 210.42c0,-3.48 -1.34,-6.76 -3.8,-9.23 -5.13,-5.12 -13.38,-5.09 -18.78,0.31l-0.09 0.09c-5.12,5.12 -4.85,13.16 0.22,18.24 5.14,5.13 13.56,4.92 18.65,-0.17 2.47,-2.46 3.8,-5.74 3.8,-9.24zm18.74 -263.3c0,-8.46 -3.33,-16.49 -9.31,-22.48 -12.39,-12.39 -32.5,-12.44 -44.8,-0.13l-0.48 0.49c-12.43,12.42 -12.21,32.39 0.17,44.77 12.44,12.44 32.72,12.22 45.12,-0.17 5.99,-5.99 9.31,-14.01 9.31,-22.48zm606.13 361.93c0.39,0.93 0.59,1.94 0.59,2.94 0,1.02 -0.2,2 -0.56,2.9 -0.41,0.94 -0.96,1.76 -1.65,2.47 -1.53,1.54 -3.51,2.28 -5.44,2.28 -1.94,0 -3.91,-0.74 -5.4,-2.24 -1.43,-1.43 -2.25,-3.45 -2.32,-5.39 -0.06,-2 0.6,-4.05 2.15,-5.59 1.45,-1.42 3.35,-2.25 5.26,-2.31 1.9,-0.06 3.85,0.59 5.39,2.13l0.33 0.33c0.74,0.77 1.3,1.61 1.66,2.49zm0 93.91c0.39,0.93 0.59,1.94 0.59,2.94 0,1.02 -0.2,2 -0.56,2.9 -0.41,0.94 -0.96,1.76 -1.65,2.47 -1.53,1.54 -3.51,2.28 -5.44,2.28 -1.94,0 -3.91,-0.73 -5.4,-2.24 -1.43,-1.43 -2.25,-3.45 -2.32,-5.39 -0.06,-2 0.6,-4.05 2.15,-5.59 1.45,-1.43 3.35,-2.26 5.26,-2.32 1.9,-0.06 3.85,0.59 5.39,2.13l0.33 0.33c0.74,0.77 1.3,1.61 1.66,2.49zm-317.24 -318.04c1.54,1.54 2.33,3.56 2.33,5.64 0,0.98 -0.19,1.96 -0.56,2.87 -0.37,0.91 -0.91,1.74 -1.63,2.45 -1,1.01 -2.33,1.76 -3.72,2.11 -1.44,0.35 -2.96,0.27 -4.4,-0.29 -1.33,-0.45 -1.88,-0.96 -3.01,-1.82 -1.39,-1.43 -2.2,-3.2 -2.32,-5.04 -0.11,-2.01 0.55,-4.01 2.13,-5.58l0.48 -0.48c1.46,-1.48 3.46,-2.18 5.41,-2.14 1.93,0.06 3.89,0.84 5.3,2.27zm-103.2 107.26c0.39,0.93 0.6,1.94 0.6,2.96 0,1.02 -0.21,2 -0.56,2.9 -0.41,0.96 -0.96,1.79 -1.67,2.49l-0.74 0.77c-1.51,1.52 -3.48,2.24 -5.42,2.21 -1.93,-0.04 -3.87,-0.79 -5.32,-2.21 -1.52,-1.52 -2.27,-3.49 -2.27,-5.44 0.03,-1.95 0.79,-3.94 2.25,-5.43l0.69 -0.69c1.53,-1.55 3.51,-2.28 5.43,-2.26 1.9,0.02 3.85,0.78 5.31,2.19 0.77,0.76 1.33,1.6 1.71,2.5zm-105.19 105.24c0.4,0.92 0.58,1.92 0.58,2.93 0,1.06 -0.24,2.1 -0.65,3.03 -0.41,0.91 -0.99,1.73 -1.64,2.4l-0.71 0.72c-1.54,1.55 -3.53,2.26 -5.46,2.21 -1.91,-0.04 -3.82,-0.8 -5.24,-2.2l-0.09 -0.09c-1.41,-1.43 -2.19,-3.37 -2.22,-5.26 -0.04,-1.95 0.68,-3.94 2.18,-5.45l0.73 -0.7c1.46,-1.44 3.45,-2.24 5.38,-2.28 1.98,-0.02 3.97,0.69 5.49,2.22 0.72,0.72 1.29,1.57 1.66,2.48zm-105.22 105.22c0.39,0.92 0.58,1.9 0.58,2.91 0,1 -0.2,1.97 -0.56,2.88 -0.38,0.94 -0.95,1.8 -1.68,2.52 -1.47,1.44 -3.46,2.26 -5.43,2.33 -1.99,0.06 -4,-0.61 -5.54,-2.13 -1.48,-1.48 -2.3,-3.41 -2.33,-5.33 -0.04,-1.89 0.63,-3.81 2.15,-5.35l0.34 -0.35c1.5,-1.46 3.47,-2.22 5.4,-2.2 1.96,-0.01 3.93,0.76 5.4,2.23 0.72,0.72 1.29,1.57 1.66,2.49zm-7.18 2.9l-0.1 -0.11 0.1 0.11zm428.09 -212.44c0.32,0.86 0.5,1.84 0.5,2.73 0,1.02 -0.21,1.99 -0.59,2.93 -0.4,0.94 -0.98,1.78 -1.67,2.48 -1.52,1.49 -3.48,2.24 -5.39,2.24 -1.95,0 -3.9,-0.75 -5.38,-2.22l-0.86 -0.85c-1.52,-1.51 -2.2,-3.5 -2.14,-5.45 0.06,-1.87 0.81,-3.8 2.25,-5.24 1.54,-1.5 3.49,-2.24 5.4,-2.24 1.91,0 3.85,0.74 5.33,2.19l0.94 0.91c0.7,0.67 1.27,1.59 1.61,2.52zm105.19 105.21c0.31,0.83 0.51,1.79 0.51,2.73 0,1.01 -0.21,2.04 -0.61,2.97 -0.39,0.9 -0.96,1.76 -1.66,2.46 -1.44,1.45 -3.37,2.21 -5.29,2.25 -1.97,0.03 -3.91,-0.69 -5.37,-2.14l-0.78 -0.79c-1.45,-1.48 -2.23,-3.43 -2.26,-5.38 -0.03,-1.98 0.7,-3.96 2.19,-5.46 1.52,-1.5 3.48,-2.27 5.43,-2.26 1.93,-0.01 3.91,0.76 5.39,2.23l0.93 0.91c0.64,0.66 1.19,1.56 1.53,2.48zm97.64 107.53l0.05 -0.2 -0.05 0.2 -0.02 -0.18 -0.1 0.06 0.11 0.11 -0.01 -0.17 0.02 0.18zm0.05 -0.04l0.01 -0.17 -0.01 0.17zm-310.17 -414.79c1.54,1.54 2.33,3.56 2.33,5.64 0,0.98 -0.19,1.96 -0.56,2.87 -0.37,0.91 -0.91,1.74 -1.63,2.45 -1,1.01 -2.33,1.76 -3.72,2.11 -1.44,0.35 -2.96,0.27 -4.4,-0.29 -1.33,-0.45 -1.88,-0.96 -3.01,-1.82 -1.39,-1.43 -2.2,-3.2 -2.32,-5.04 -0.11,-2.02 0.55,-4.01 2.13,-5.59l0.48 -0.48c1.46,-1.48 3.46,-2.18 5.41,-2.14 1.93,0.06 3.89,0.84 5.3,2.27zm-103.2 107.26c0.39,0.93 0.6,1.94 0.6,2.96 0,1.02 -0.21,2 -0.56,2.89 -0.41,0.96 -0.96,1.78 -1.67,2.49l-0.74 0.77c-1.51,1.52 -3.48,2.24 -5.42,2.21 -1.93,-0.04 -3.87,-0.79 -5.32,-2.21 -1.52,-1.52 -2.27,-3.49 -2.27,-5.44 0.03,-1.96 0.79,-3.94 2.25,-5.42l0.69 -0.7c1.53,-1.55 3.51,-2.28 5.43,-2.26 1.9,0.02 3.85,0.78 5.31,2.19 0.77,0.76 1.33,1.6 1.71,2.5zm-105.19 105.24c0.4,0.92 0.58,1.92 0.58,2.93 0,1.06 -0.24,2.1 -0.65,3.03 -0.41,0.91 -0.99,1.72 -1.64,2.4l-0.71 0.72c-1.54,1.55 -3.53,2.25 -5.46,2.21 -1.91,-0.04 -3.82,-0.8 -5.24,-2.2l-0.09 -0.09c-1.41,-1.43 -2.19,-3.37 -2.22,-5.26 -0.04,-1.95 0.68,-3.94 2.18,-5.45l0.73 -0.7c1.46,-1.44 3.45,-2.24 5.38,-2.28 1.98,-0.02 3.97,0.7 5.49,2.22 0.72,0.72 1.29,1.57 1.66,2.49zm-105.22 105.22c0.39,0.92 0.58,1.9 0.58,2.92 0,1 -0.2,1.97 -0.56,2.88 -0.38,0.94 -0.95,1.8 -1.68,2.52 -1.47,1.45 -3.46,2.27 -5.43,2.33 -1.99,0.06 -4,-0.61 -5.54,-2.13 -1.48,-1.48 -2.3,-3.41 -2.33,-5.33 -0.04,-1.89 0.63,-3.81 2.15,-5.35l0.34 -0.35c1.5,-1.46 3.47,-2.21 5.4,-2.2 1.96,-0.02 3.93,0.76 5.4,2.23 0.72,0.72 1.29,1.57 1.66,2.48zm-7.18 2.91l-0.1 -0.11 0.1 0.11zm428.09 -212.44c0.32,0.87 0.5,1.84 0.5,2.73 0,1.02 -0.21,2 -0.59,2.93 -0.4,0.94 -0.98,1.79 -1.67,2.48 -1.52,1.48 -3.48,2.24 -5.39,2.24 -1.95,0 -3.9,-0.74 -5.38,-2.22l-0.86 -0.85c-1.52,-1.5 -2.2,-3.5 -2.14,-5.45 0.06,-1.87 0.81,-3.8 2.25,-5.23 1.54,-1.51 3.49,-2.25 5.4,-2.25 1.91,0 3.85,0.74 5.33,2.19l0.94 0.91c0.7,0.67 1.27,1.59 1.61,2.52zm105.19 105.21c0.31,0.83 0.51,1.78 0.51,2.73 0,1.01 -0.21,2.04 -0.61,2.98 -0.39,0.9 -0.96,1.76 -1.66,2.46 -1.44,1.44 -3.37,2.21 -5.29,2.24 -1.97,0.03 -3.91,-0.69 -5.37,-2.15l-0.78 -0.78c-1.45,-1.48 -2.23,-3.43 -2.26,-5.38 -0.03,-1.98 0.7,-3.96 2.19,-5.46 1.52,-1.51 3.48,-2.27 5.43,-2.26 1.93,-0.01 3.91,0.76 5.39,2.23l0.93 0.91c0.64,0.65 1.19,1.56 1.53,2.48zm97.64 107.53l0.05 -0.2 -0.05 0.2 -0.02 -0.18 0.02 0.18zm-0.02 -0.18l-0.1 0.06 0.11 0.11 -0.01 -0.17zm0.07 0.13l0.01 -0.16 -0.01 0.16z"/>
 </g>
</svg>