<svg width="55" height="55" viewBox="0 0 55 55" fill="none" xmlns="http://www.w3.org/2000/svg">
<path d="M51.9445 9.06191L44.9763 2.1002C44.4847 1.60649 43.9005 1.21476 43.2571 0.947524C42.6137 0.680286 41.9238 0.542802 41.2272 0.542969C39.8073 0.542969 38.4726 1.09912 37.4715 2.1002L29.9732 9.59844C29.4795 10.09 29.0878 10.6742 28.8206 11.3176C28.5533 11.961 28.4159 12.6509 28.416 13.3476C28.416 14.7674 28.9722 16.1021 29.9732 17.1032L35.4563 22.5862C34.1728 25.4151 32.3884 27.9887 30.1892 30.1826C27.9954 32.3872 25.4221 34.1781 22.5928 35.4693L17.1098 29.9863C16.6182 29.4926 16.034 29.1009 15.3906 28.8337C14.7472 28.5664 14.0573 28.4289 13.3606 28.4291C11.9408 28.4291 10.6061 28.9853 9.60499 29.9863L2.1002 37.478C1.60588 37.9705 1.21382 38.5558 0.946572 39.2004C0.679321 39.8449 0.542158 40.5359 0.542972 41.2337C0.542972 42.6535 1.09912 43.9883 2.1002 44.9894L9.05538 51.9445C10.6519 53.5476 12.8568 54.457 15.1207 54.457C15.5983 54.457 16.0564 54.4178 16.5078 54.3393C25.3277 52.8867 34.0757 48.1954 41.1356 41.1421C48.1889 34.0953 52.8736 25.3539 54.3458 16.5078C54.7907 13.8056 53.8943 11.0248 51.9445 9.06191V9.06191Z" fill="#FFFBFC" fill-opacity="0.8"/>
</svg>
