<svg width="50" height="50" viewBox="0 0 50 50" fill="none" xmlns="http://www.w3.org/2000/svg">
<path d="M47.6692 7.90049L41.2069 1.44418C40.751 0.986308 40.2092 0.623022 39.6125 0.375185C39.0159 0.127348 38.3761 -0.000154852 37.73 1.41138e-07C36.4133 1.41138e-07 35.1754 0.515777 34.2471 1.44418L27.2933 8.39806C26.8354 8.85392 26.4721 9.39576 26.2243 9.99244C25.9765 10.5891 25.849 11.2289 25.8491 11.875C25.8491 13.1917 26.3649 14.4296 27.2933 15.358L32.3782 20.443C31.1879 23.0665 29.5331 25.4532 27.4935 27.4879C25.4591 29.5324 23.0726 31.1933 20.4487 32.3908L15.3639 27.3058C14.908 26.848 14.3662 26.4847 13.7695 26.2368C13.1728 25.989 12.5331 25.8615 11.887 25.8617C10.5702 25.8617 9.33239 26.3774 8.404 27.3058L1.44416 34.2536C0.985734 34.7103 0.622141 35.2532 0.374296 35.8509C0.126452 36.4487 -0.000751924 37.0896 3.34362e-06 37.7367C3.34362e-06 39.0534 0.515772 40.2913 1.44416 41.2197L7.8943 47.6699C9.37486 49.1566 11.4197 50 13.5192 50C13.9622 50 14.3869 49.9636 14.8056 49.8908C22.9851 48.5437 31.0978 44.193 37.6451 37.6517C44.1862 31.1165 48.5308 23.0097 49.8961 14.8058C50.3087 12.2998 49.4774 9.72087 47.6692 7.90049V7.90049Z" fill="black"/>
</svg>
