<svg width="19" height="19" viewBox="0 0 19 19" fill="none" xmlns="http://www.w3.org/2000/svg">
<circle cx="9.5" cy="9.5" r="9" stroke="#121212"/>
<path d="M8.62866 10.094C8.62866 9.74867 8.66132 9.48267 8.72666 9.296C8.80132 9.1 8.90866 8.95067 9.04866 8.848C9.18866 8.74533 9.39399 8.64733 9.66466 8.554L10.1687 8.372C10.5233 8.25067 10.7753 8.13867 10.9247 8.036C11.0833 7.93333 11.1907 7.79333 11.2467 7.616C11.3027 7.42933 11.3307 7.14467 11.3307 6.762C11.3307 6.33267 11.2653 6.02467 11.1347 5.838C11.0133 5.642 10.8173 5.516 10.5467 5.46C10.276 5.404 9.86066 5.376 9.30066 5.376C8.63799 5.376 7.87266 5.432 7.00466 5.544V4.48C7.41532 4.41467 7.86799 4.36333 8.36266 4.326C8.86666 4.27933 9.30999 4.256 9.69266 4.256C10.3833 4.256 10.934 4.33533 11.3447 4.494C11.7553 4.65267 12.054 4.914 12.2407 5.278C12.4367 5.63267 12.5347 6.118 12.5347 6.734C12.5347 7.38733 12.4507 7.89133 12.2827 8.246C12.124 8.60067 11.816 8.85267 11.3587 9.002L10.8687 9.184C10.4487 9.324 10.1687 9.43133 10.0287 9.506C9.89799 9.57133 9.80932 9.66 9.76266 9.772C9.72532 9.884 9.70666 10.08 9.70666 10.36V11.2H8.62866V10.094ZM8.50266 14V12.572H9.83266V14H8.50266Z" fill="#121212"/>
</svg>
