<svg width="14" height="14" viewBox="0 0 14 14" fill="none" xmlns="http://www.w3.org/2000/svg">
<path d="M7 0.5C5.71442 0.5 4.45772 0.881218 3.3888 1.59545C2.31988 2.30968 1.48676 3.32484 0.994786 4.51256C0.502816 5.70028 0.374095 7.00721 0.624899 8.26809C0.875703 9.52896 1.49477 10.6872 2.40381 11.5962C3.31285 12.5052 4.47104 13.1243 5.73192 13.3751C6.99279 13.6259 8.29973 13.4972 9.48744 13.0052C10.6752 12.5132 11.6903 11.6801 12.4046 10.6112C13.1188 9.54229 13.5 8.28558 13.5 7C13.498 5.2767 12.8126 3.62455 11.594 2.406C10.3754 1.18744 8.7233 0.501985 7 0.5V0.5ZM9.25 5C9.39834 5 9.54334 5.04399 9.66668 5.1264C9.79002 5.20881 9.88615 5.32594 9.94291 5.46299C9.99968 5.60003 10.0145 5.75083 9.98559 5.89632C9.95665 6.0418 9.88522 6.17544 9.78033 6.28033C9.67544 6.38522 9.54181 6.45665 9.39632 6.48559C9.25083 6.51453 9.10004 6.49968 8.96299 6.44291C8.82595 6.38614 8.70881 6.29001 8.6264 6.16668C8.54399 6.04334 8.5 5.89834 8.5 5.75C8.5 5.55109 8.57902 5.36032 8.71967 5.21967C8.86033 5.07902 9.05109 5 9.25 5ZM4.75 5C4.89834 5 5.04334 5.04399 5.16668 5.1264C5.29002 5.20881 5.38615 5.32594 5.44291 5.46299C5.49968 5.60003 5.51453 5.75083 5.48559 5.89632C5.45665 6.0418 5.38522 6.17544 5.28033 6.28033C5.17544 6.38522 5.04181 6.45665 4.89632 6.48559C4.75084 6.51453 4.60003 6.49968 4.46299 6.44291C4.32595 6.38614 4.20881 6.29001 4.1264 6.16668C4.04399 6.04334 4 5.89834 4 5.75C4 5.55109 4.07902 5.36032 4.21967 5.21967C4.36032 5.07902 4.55109 5 4.75 5ZM9.84913 10.4326C9.77326 10.4769 9.68697 10.5001 9.59913 10.5C9.51139 10.5001 9.42517 10.4771 9.34914 10.4333C9.27311 10.3895 9.20995 10.3264 9.166 10.2505C9.05621 10.0611 8.92228 9.8868 8.76757 9.73194C8.53994 9.50366 8.27016 9.32175 7.97319 9.19631C7.66499 9.06723 7.33418 9.00075 7.00003 9.00075C6.66589 9.00075 6.33508 9.06723 6.02688 9.19631C5.52547 9.40887 5.10691 9.77892 4.8345 10.2505C4.80161 10.3073 4.75784 10.3572 4.70569 10.3971C4.65354 10.437 4.59404 10.4663 4.53059 10.4832C4.40243 10.5174 4.26593 10.4993 4.15113 10.4329C4.03632 10.3664 3.95261 10.2571 3.91841 10.129C3.88421 10.0008 3.90232 9.86431 3.96875 9.7495C4.2762 9.21771 4.71814 8.77615 5.25021 8.46918C5.78227 8.1622 6.38573 8.0006 7 8.0006C7.61427 8.0006 8.21773 8.1622 8.7498 8.46918C9.28186 8.77615 9.7238 9.21771 10.0313 9.7495C10.0642 9.8063 10.0857 9.86903 10.0944 9.93413C10.103 9.99922 10.0988 10.0654 10.0819 10.1288C10.065 10.1923 10.0357 10.2518 9.99576 10.3039C9.95582 10.356 9.90599 10.3998 9.84913 10.4326V10.4326Z" fill="#0C0D0E"/>
</svg>
